<svg width="140" height="140" viewBox="0 0 140 140" fill="none" xmlns="http://www.w3.org/2000/svg">
<g clip-path="url(#clip0_10_1869)">
<path d="M51.9082 86.1977C51.8036 86.0603 51.6062 86.0358 51.4717 86.1427C49.1068 88.0367 47.2501 89.4418 45.4532 90.6912C45.3127 90.789 45.2738 90.9875 45.3725 91.1311C45.4323 91.2227 45.5309 91.2686 45.6296 91.2686C45.6894 91.2686 45.7522 91.2502 45.803 91.2136C47.6119 89.955 49.4775 88.5437 51.8544 86.6407C51.9919 86.5368 52.0128 86.3352 51.9082 86.1977Z" fill="#767676"/>
<path d="M42.3471 93.6933C42.4099 93.6933 42.4727 93.6749 42.5295 93.6322L43.3577 93.0213C43.4953 92.9175 43.5282 92.722 43.4265 92.5785C43.3248 92.4349 43.1305 92.4044 42.993 92.5083L42.1647 93.1191C42.0272 93.2229 41.9943 93.4184 42.0959 93.5619C42.1557 93.6474 42.2514 93.6933 42.3471 93.6933Z" fill="#767676"/>
<path d="M61.47 86.335L59.4009 89.6248C59.3083 89.7715 59.3501 89.97 59.4936 90.0647C59.5445 90.0983 59.6043 90.1166 59.6611 90.1166C59.7627 90.1166 59.8644 90.0647 59.9212 89.97L61.9902 86.6802C62.0829 86.5336 62.0411 86.335 61.8976 86.2403C61.757 86.1456 61.5627 86.1884 61.47 86.335Z" fill="#767676"/>
<path d="M51.3824 101.672C51.4781 101.672 51.5708 101.627 51.6336 101.541L58.7913 91.5462C58.8929 91.4056 58.8631 91.2071 58.7225 91.1032C58.585 90.9994 58.3907 91.0299 58.289 91.1735L51.1313 101.168C51.0296 101.309 51.0595 101.507 51.2 101.611C51.2539 101.654 51.3196 101.672 51.3824 101.672Z" fill="#767676"/>
<path d="M67.3389 86.4113C66.6064 89.2368 65.7782 92.0868 64.977 94.8421C63.9515 98.3732 62.8901 102.024 62.017 105.668C61.9752 105.839 62.0768 106.01 62.2443 106.053C62.2682 106.059 62.2951 106.062 62.319 106.062C62.4595 106.062 62.5851 105.964 62.621 105.82C63.488 102.192 64.5464 98.5474 65.5719 95.0254C66.3732 92.264 67.2044 89.4079 67.9399 86.5762C67.9847 86.4082 67.886 86.2341 67.7186 86.1883C67.5572 86.1425 67.3838 86.2433 67.3389 86.4113Z" fill="#767676"/>
<path d="M46.8394 98.4554C46.9232 98.4554 47.0039 98.4218 47.0667 98.3546L53.2826 91.6377C53.3992 91.5094 53.3962 91.3109 53.2706 91.1887C53.145 91.0696 52.9507 91.0757 52.8311 91.2009L46.6152 97.9178C46.4986 98.0461 46.5016 98.2447 46.6272 98.3669C46.687 98.428 46.7617 98.4554 46.8394 98.4554Z" fill="#767676"/>
<path d="M42.1849 86.0876L38.944 87.7522C38.7915 87.8316 38.7287 88.021 38.8064 88.1767C38.8602 88.2867 38.9709 88.3508 39.0845 88.3508C39.1323 88.3508 39.1802 88.3386 39.225 88.3172L42.466 86.6526C42.6185 86.5732 42.6812 86.3839 42.6035 86.2281C42.5228 86.0723 42.3374 86.0082 42.1849 86.0876Z" fill="#767676"/>
<path d="M54.6139 89.9394L57.5588 86.6833C57.6754 86.555 57.6664 86.3534 57.5408 86.2343C57.4153 86.1152 57.2179 86.1243 57.1013 86.2526L54.1564 89.5087C54.0398 89.637 54.0488 89.8386 54.1743 89.9578C54.2341 90.0127 54.3089 90.0433 54.3836 90.0433C54.4673 90.0402 54.5511 90.0066 54.6139 89.9394Z" fill="#767676"/>
<path d="M65.033 86.6528C65.1048 86.494 65.036 86.3046 64.8775 86.2313C64.7221 86.161 64.5367 86.2283 64.4649 86.3901C63.4484 88.678 62.3422 90.9721 61.2718 93.1897C59.6872 96.4765 58.0488 99.8732 56.6645 103.328C56.5987 103.49 56.6764 103.676 56.8349 103.74C56.8738 103.756 56.9126 103.765 56.9515 103.765C57.0741 103.765 57.1907 103.691 57.2385 103.566C58.6138 100.13 60.2493 96.7422 61.8279 93.4677C62.9042 91.247 64.0135 88.9468 65.033 86.6528Z" fill="#767676"/>
<path d="M75.5839 107.158C75.6048 107.317 75.7394 107.433 75.8919 107.433C75.9038 107.433 75.9188 107.433 75.9337 107.43C76.1042 107.409 76.2237 107.247 76.2028 107.076C75.7693 103.682 75.4583 100.212 75.1564 96.8581C74.8484 93.4155 74.5285 89.8568 74.074 86.3683C74.0501 86.1942 73.8976 86.0751 73.7242 86.0965C73.5538 86.1209 73.4342 86.2798 73.4581 86.4539C73.9096 89.9301 74.2295 93.4827 74.5375 96.9192C74.8364 100.279 75.1504 103.752 75.5839 107.158Z" fill="#767676"/>
<path d="M78.8545 95.0074C80.0325 98.6393 81.2494 102.396 82.254 106.148C82.2928 106.288 82.4154 106.383 82.5529 106.383C82.5798 106.383 82.6068 106.38 82.6337 106.371C82.7981 106.325 82.8968 106.151 82.8519 105.983C81.8443 102.213 80.6245 98.4499 79.4435 94.8089C78.5495 92.0506 77.6257 89.1976 76.8005 86.369C76.7526 86.201 76.5792 86.1063 76.4148 86.1552C76.2504 86.2041 76.1577 86.3812 76.2055 86.5492C77.0337 89.387 77.9605 92.243 78.8545 95.0074Z" fill="#767676"/>
<path d="M89.9834 103.399C90.0402 103.502 90.1449 103.56 90.2525 103.56C90.3033 103.56 90.3571 103.548 90.405 103.521C90.5545 103.435 90.6083 103.24 90.5216 103.09C89.4333 101.123 88.345 99.1129 87.2926 97.167C85.3642 93.6022 83.37 89.9182 81.298 86.3565C81.2113 86.2068 81.02 86.1579 80.8735 86.2465C80.727 86.3351 80.6761 86.5306 80.7658 86.6803C82.8348 90.2329 84.826 93.9138 86.7514 97.4725C87.8068 99.4153 88.8951 101.428 89.9834 103.399Z" fill="#767676"/>
<path d="M94.4911 90.7275C94.5509 90.7794 94.6227 90.8039 94.6944 90.8039C94.7811 90.8039 94.8678 90.7672 94.9306 90.6939C95.0412 90.5595 95.0263 90.3609 94.8977 90.2479L90.1648 86.1026C90.0362 85.9896 89.8389 86.0049 89.7283 86.1362C89.6176 86.2706 89.6326 86.4692 89.7612 86.5822L94.4911 90.7275Z" fill="#767676"/>
<path d="M99.1206 95.169C99.1804 95.2271 99.2581 95.2546 99.3329 95.2546C99.4166 95.2546 99.4973 95.221 99.5601 95.1538C99.6767 95.0255 99.6707 94.8239 99.5452 94.7048L98.3014 93.5106C98.1758 93.3915 97.9785 93.3976 97.8619 93.5259C97.7453 93.6541 97.7513 93.8557 97.8768 93.9748L99.1206 95.169Z" fill="#767676"/>
<path d="M70.3794 86.1456C70.2119 86.1334 70.0565 86.2556 70.0415 86.4328C69.6139 91.0117 69.1714 95.9755 68.6452 102.048C68.6302 102.222 68.7558 102.378 68.9262 102.393C68.9352 102.393 68.9442 102.393 68.9531 102.393C69.1116 102.393 69.2492 102.268 69.2611 102.103C69.7844 96.0305 70.2269 91.0697 70.6544 86.4908C70.6754 86.3197 70.5528 86.1639 70.3794 86.1456Z" fill="#767676"/>
<path d="M68.9388 102.519C68.7743 102.507 68.6158 102.632 68.6009 102.806L68.2062 107.125C68.1913 107.299 68.3169 107.455 68.4873 107.47C68.4962 107.47 68.5082 107.473 68.5172 107.473C68.6757 107.473 68.8102 107.351 68.8251 107.186L69.2198 102.867C69.2348 102.69 69.1092 102.534 68.9388 102.519Z" fill="#767676"/>
<path d="M95.1973 100.035C95.266 100.035 95.3348 100.011 95.3916 99.9651C95.5261 99.8551 95.5471 99.6565 95.4394 99.5191C91.8965 94.983 88.3894 90.5354 85.0139 86.2987C84.9063 86.1612 84.7089 86.1429 84.5774 86.2528C84.4458 86.3628 84.4249 86.5644 84.5325 86.6988C87.9051 90.9356 91.4121 95.3801 94.9521 99.9162C95.0179 99.9956 95.1076 100.035 95.1973 100.035Z" fill="#767676"/>
<path d="M99.2244 88.275C99.3291 88.275 99.4277 88.2231 99.4875 88.1254C99.5772 87.9757 99.5354 87.7802 99.3889 87.6885L97.0179 86.1733C96.8744 86.0816 96.6801 86.1244 96.5904 86.2741C96.5007 86.4238 96.5426 86.6193 96.6891 86.7109L99.06 88.2262C99.1108 88.2567 99.1676 88.275 99.2244 88.275Z" fill="#767676"/>
<path d="M88.6619 57.2728C88.7217 57.3552 88.8144 57.398 88.9071 57.398C88.9728 57.398 89.0386 57.3766 89.0954 57.3338L98.1995 50.2074C98.337 50.1004 98.3609 49.9019 98.2563 49.7614C98.1516 49.6239 97.9573 49.5964 97.8198 49.7033L88.7157 56.8298C88.5842 56.9337 88.5572 57.1353 88.6619 57.2728Z" fill="#767676"/>
<path d="M84.1459 50.8465C84.0024 50.7518 83.8111 50.7946 83.7154 50.9412L79.9572 56.919C79.8645 57.0656 79.9064 57.2611 80.0499 57.3588C80.1007 57.3924 80.1605 57.4077 80.2173 57.4077C80.319 57.4077 80.4206 57.3558 80.4774 57.2611L84.2356 51.2833C84.3313 51.1367 84.2895 50.9412 84.1459 50.8465Z" fill="#767676"/>
<path d="M92.0063 39.3666L84.8486 49.3615C84.747 49.502 84.7769 49.7005 84.9174 49.8044C84.9712 49.8472 85.037 49.8655 85.0998 49.8655C85.1955 49.8655 85.2911 49.8197 85.3509 49.7341L92.5086 39.7393C92.6103 39.5988 92.5804 39.4002 92.4399 39.2964C92.3023 39.1955 92.108 39.2261 92.0063 39.3666Z" fill="#767676"/>
<path d="M81.6238 35.2459C81.6657 35.0749 81.567 34.9038 81.4026 34.858C81.2382 34.8152 81.0677 34.916 81.0229 35.084C80.5415 36.9779 80.0333 38.8902 79.5161 40.7963C79.7104 40.8788 79.8987 40.9765 80.0811 41.0896C80.6073 39.1437 81.1275 37.1857 81.6238 35.2459Z" fill="#767676"/>
<path d="M75.1149 57.0227C75.07 57.1907 75.1717 57.3648 75.3361 57.4107C75.363 57.4168 75.3899 57.4198 75.4139 57.4198C75.5514 57.4198 75.677 57.3251 75.7128 57.1816C75.9879 56.1033 76.275 55.0189 76.562 53.9346H75.9192C75.6471 54.967 75.378 55.9964 75.1149 57.0227Z" fill="#767676"/>
<path d="M94.4907 45.7265L97.0231 42.9897C97.1397 42.8614 97.1368 42.6629 97.0112 42.5407C96.8856 42.4216 96.6913 42.4277 96.5717 42.5529L94.0393 45.2897C93.9227 45.418 93.9257 45.6165 94.0512 45.7387C94.111 45.7967 94.1888 45.8242 94.2635 45.8242C94.3472 45.8273 94.4309 45.7937 94.4907 45.7265Z" fill="#767676"/>
<path d="M86.8015 37.1672C86.6431 37.1031 86.4607 37.1825 86.3979 37.3444C86.1109 38.0867 85.773 38.7984 85.4143 39.5529C85.1571 40.0966 84.8911 40.6587 84.6459 41.2299C84.5771 41.3918 84.6489 41.5781 84.8074 41.6484C84.8492 41.6667 84.8911 41.6759 84.9329 41.6759C85.0525 41.6759 85.1661 41.6056 85.217 41.4865C85.4561 40.9275 85.7192 40.3716 85.9733 39.834C86.3202 39.1008 86.6789 38.3464 86.9749 37.5827C87.0377 37.4177 86.96 37.2314 86.8015 37.1672Z" fill="#767676"/>
<path d="M96.0937 57.2212C96.1475 57.3311 96.2581 57.3953 96.3718 57.3953C96.4196 57.3953 96.4674 57.3831 96.5123 57.3617L103.996 53.5192C104.148 53.4397 104.211 53.2504 104.133 53.0946C104.056 52.9388 103.87 52.8746 103.718 52.9541L96.2342 56.7966C96.0758 56.876 96.016 57.0654 96.0937 57.2212Z" fill="#767676"/>
<path d="M83.6738 57.3559C83.7335 57.4139 83.8083 57.4414 83.883 57.4414C83.9668 57.4414 84.0505 57.4078 84.1103 57.3406L91.9705 48.6562C92.0871 48.5279 92.0782 48.3263 91.9526 48.2072C91.827 48.0881 91.6297 48.0972 91.5131 48.2255L83.6528 56.9099C83.5392 57.0351 83.5482 57.2367 83.6738 57.3559Z" fill="#767676"/>
<path d="M77.5458 56.9891C77.477 57.151 77.5488 57.3373 77.7073 57.4076C77.7491 57.4259 77.791 57.4351 77.8328 57.4351C77.9524 57.4351 78.0661 57.3648 78.1169 57.2457C78.6611 55.9749 79.2381 54.7163 79.8182 53.47C79.5521 53.6105 79.268 53.7235 78.975 53.803C78.4876 54.8538 78.0063 55.9169 77.5458 56.9891Z" fill="#767676"/>
<path d="M84.4818 43.1148C84.5446 42.9529 84.4669 42.7665 84.3084 42.7024C84.1499 42.6383 83.9676 42.7177 83.9048 42.8796C83.4025 44.1716 82.8464 45.4667 82.2664 46.7526V48.2554C83.0497 46.5571 83.8121 44.8375 84.4818 43.1148Z" fill="#767676"/>
<path d="M68.0569 33.7554C68.039 33.5813 67.8865 33.4592 67.7131 33.4744C67.5427 33.4928 67.4201 33.6516 67.438 33.8257C67.6802 36.025 67.9044 38.2732 68.1227 40.4725H68.7476C68.5293 38.2549 68.3021 35.9792 68.0569 33.7554Z" fill="#767676"/>
<path d="M70.0278 57.1295C70.0518 57.2884 70.1833 57.3983 70.3358 57.3983C70.3507 57.3983 70.3657 57.3983 70.3836 57.3953C70.5541 57.3708 70.6707 57.2089 70.6437 57.0348C70.4943 56.0115 70.3537 54.9759 70.2192 53.9373H69.5913C69.7288 55.0064 69.8724 56.0726 70.0278 57.1295Z" fill="#767676"/>
<path d="M67.4515 57.0409C67.4934 57.1784 67.616 57.2639 67.7475 57.2639C67.7774 57.2639 67.8073 57.2608 67.8402 57.2486C68.0046 57.1967 68.0973 57.0195 68.0465 56.8515L67.1675 53.9346H66.5187L67.4515 57.0409Z" fill="#767676"/>
<path d="M62.4628 39.7272C62.4927 39.7272 62.5225 39.7241 62.5554 39.7119C62.7199 39.66 62.8125 39.4828 62.7617 39.3148L61.3865 34.7512C61.3356 34.5832 61.1652 34.4916 60.9978 34.5405C60.8334 34.5924 60.7407 34.7695 60.7915 34.9375L62.1668 39.5011C62.2086 39.6386 62.3312 39.7272 62.4628 39.7272Z" fill="#767676"/>
<path d="M64.0287 57.2333C64.0856 57.3372 64.1902 57.3952 64.3008 57.3952C64.3516 57.3952 64.4025 57.383 64.4533 57.3555C64.6028 57.27 64.6566 57.0775 64.5729 56.9248C64.0258 55.9198 63.4816 54.9239 62.9375 53.9373H62.2259C62.8209 55.0247 63.4218 56.1214 64.0287 57.2333Z" fill="#767676"/>
<path d="M57.649 44.4621C56.2886 42.0641 54.9552 39.7425 53.6516 37.5064C53.5649 37.3567 53.3735 37.3078 53.227 37.3964C53.0805 37.485 53.0297 37.6805 53.1194 37.8302C54.5725 40.3229 56.0644 42.9286 57.5892 45.626V45.2258C57.5892 44.9662 57.6131 44.7126 57.649 44.4621Z" fill="#767676"/>
<path d="M48.7124 50.2168C48.6018 50.3513 48.6167 50.5498 48.7453 50.6628L56.3723 57.3435C56.4321 57.3954 56.5038 57.4198 56.5756 57.4198C56.6623 57.4198 56.749 57.3832 56.8118 57.3098C56.9224 57.1754 56.9075 56.9769 56.7789 56.8639L49.1519 50.1833C49.0203 50.0672 48.823 50.0824 48.7124 50.2168Z" fill="#767676"/>
<path d="M43.0631 44.4222C42.9375 44.3031 42.7402 44.3092 42.6236 44.4375C42.5069 44.5658 42.5129 44.7674 42.6385 44.8866L46.597 48.6837C46.6568 48.7417 46.7345 48.7692 46.8093 48.7692C46.893 48.7692 46.9737 48.7356 47.0365 48.6684C47.1531 48.5401 47.1472 48.3385 47.0216 48.2193L43.0631 44.4222Z" fill="#767676"/>
<path d="M37.2 54.7561C37.0415 54.6859 36.8591 54.7592 36.7904 54.9211C36.7216 55.083 36.7934 55.2694 36.9518 55.3396L41.6698 57.4321C41.7087 57.4504 41.7506 57.4596 41.7924 57.4596C41.912 57.4596 42.0256 57.3894 42.0764 57.2672C42.1452 57.1053 42.0734 56.9189 41.915 56.8487L37.2 54.7561Z" fill="#767676"/>
<path d="M72.6572 57.0777C72.6332 57.2518 72.7498 57.4106 72.9203 57.4351C72.9352 57.4381 72.9501 57.4381 72.9651 57.4381C73.1176 57.4381 73.2491 57.3251 73.273 57.1663C73.4225 56.0911 73.5391 55.0128 73.6408 53.9346H73.0159C72.9173 54.9853 72.8007 56.0361 72.6572 57.0777Z" fill="#767676"/>
<path d="M75.156 33.441C74.9915 33.4288 74.8331 33.554 74.8181 33.7281L74.4234 38.0469C74.4085 38.221 74.5341 38.3767 74.7045 38.392C74.7135 38.392 74.7254 38.392 74.7344 38.392C74.8929 38.392 75.0274 38.2698 75.0424 38.1049L75.437 33.7861C75.452 33.612 75.3264 33.4563 75.156 33.441Z" fill="#767676"/>
<path d="M48.2459 40.4237L47.9439 40.0388C47.8363 39.9013 47.642 39.8799 47.5074 39.9899C47.3729 40.0999 47.352 40.2984 47.4596 40.4359L47.7616 40.8208C48.2549 41.447 48.7661 42.0946 49.2744 42.7116C49.3372 42.7849 49.4239 42.8246 49.5136 42.8246C49.5853 42.8246 49.6541 42.8002 49.7139 42.7513C49.8455 42.6383 49.8634 42.4397 49.7528 42.3053C49.2475 41.6913 48.7392 41.0468 48.2459 40.4237Z" fill="#767676"/>
<path d="M60.9327 57.3185C60.9955 57.3918 61.0822 57.4315 61.1719 57.4315C61.2437 57.4315 61.3125 57.4071 61.3723 57.3582C61.5038 57.2452 61.5218 57.0467 61.4111 56.9123C58.9535 53.9218 56.4749 50.7817 54.077 47.7454L52.6509 45.9401C52.5432 45.8027 52.3489 45.7813 52.2143 45.8913C52.0798 46.0012 52.0589 46.1998 52.1665 46.3372L53.5927 48.1425C55.9905 51.1788 58.4691 54.322 60.9327 57.3185Z" fill="#767676"/>
<path d="M44.1519 52.786C44.0622 52.9356 44.1041 53.1311 44.2506 53.2227L50.7923 57.3979C50.8431 57.4315 50.8999 57.4468 50.9568 57.4468C51.0614 57.4468 51.1601 57.3948 51.2199 57.2971C51.3096 57.1474 51.2677 56.952 51.1212 56.8603L44.5824 52.6852C44.4359 52.5936 44.2446 52.6363 44.1519 52.786Z" fill="#767676"/>
<path d="M11.4013 66.5041C11.4611 66.2567 11.7362 65.881 12.3102 65.5908C12.959 65.1937 13.8709 64.9737 14.8725 64.9737C15.1176 64.9737 15.3658 64.986 15.608 65.0134C17.4557 65.1815 18.7802 66.0551 19.2197 66.7821L19.2705 66.8554L23.4652 64.036L23.4443 64.0054C22.0152 61.7541 19.2615 60.2268 16.0834 59.9183C15.6977 59.8877 15.297 59.8572 14.9024 59.8572C13.0906 59.8572 11.3684 60.2818 9.92133 61.0821C7.89123 62.194 6.61159 64.0146 6.40529 66.0734C6.0196 70.2277 9.34728 73.3863 14.6841 73.9361C16.2089 74.0888 17.3122 74.4523 17.9819 75.0327C18.4663 75.5276 18.4663 75.9949 18.4393 76.1935C18.4154 76.5081 18.0537 76.9114 17.5424 77.1893C16.8637 77.562 15.9578 77.7697 14.9951 77.7697C14.7499 77.7697 14.4988 77.7575 14.2566 77.73C12.4388 77.5651 11.0904 76.6945 10.603 75.943L10.5761 75.8972L6.3754 78.6739L6.42025 78.738C7.84939 80.9893 10.603 82.5167 13.7842 82.8252C14.1519 82.8557 14.5466 82.8863 14.9622 82.8863C16.7381 82.8863 18.4962 82.4617 19.9074 81.695C21.9674 80.5342 23.25 78.7167 23.4264 76.7006C23.8121 72.4424 20.5741 69.3572 15.1775 68.8379C13.8171 68.6851 11.2757 68.0162 11.3953 66.553L11.3983 66.5285L11.4013 66.5041ZM10.6778 69.3602C11.6823 70.1941 13.1743 70.7287 14.9921 70.9089C18.3048 71.2388 21.7312 72.8731 21.3993 76.4745C21.2707 77.7972 20.4067 78.9916 18.9626 79.8347C17.8563 80.4486 16.4362 80.7847 14.9652 80.7847C14.6243 80.7847 14.3014 80.7847 13.9785 80.7511C12.4388 80.5861 10.9977 80.0882 9.92432 79.3459L9.55658 79.0924L10.3668 78.5395L10.5313 78.6464C11.482 79.2665 12.7407 79.6728 14.0742 79.798C14.3493 79.8285 14.6423 79.8591 14.9682 79.8591C16.2538 79.8591 17.5215 79.5567 18.5201 79.016C19.707 78.3195 20.3917 77.4062 20.4993 76.3859C20.586 75.3687 20.1794 74.321 19.3901 73.5146C18.4334 72.5982 16.9564 72.0453 14.8785 71.8315C12.4746 71.6085 10.4745 70.7134 9.38616 69.3786C8.6686 68.4958 8.36064 67.4511 8.46828 66.275C8.56694 64.9493 9.45492 63.7335 10.902 62.9424C12.0082 62.2978 13.3925 61.9557 14.9084 61.9557C15.2492 61.9557 15.5721 61.9557 15.895 61.9893C17.4019 62.1543 18.84 62.6522 19.9462 63.3945L20.3439 63.6602L19.4708 64.1979L19.3154 64.097C18.3556 63.4861 17.1089 63.0646 15.8023 62.9118C15.5093 62.8813 15.2163 62.8813 14.9054 62.8813C13.5031 62.8813 12.2773 63.1837 11.3385 63.761C10.1545 64.3811 9.45493 65.3006 9.37121 66.3544C9.25461 67.5183 9.70906 68.5568 10.6778 69.3602Z" fill="#767676"/>
<path d="M31.6133 82.8833H36.7529V65.1388H42.3051V59.8542H26.0881V65.1388H31.6104V82.8833H31.6133ZM28.178 62.9761V62.0506H40.1912V62.9761H34.6391V80.7206H33.7331V62.9761H28.178Z" fill="#767676"/>
<path d="M48.5043 75.9796H57.3573L53.1147 64.0359L48.5043 75.9796ZM50.4926 74.5745L53.0788 67.952L55.4019 74.5745H50.4926Z" fill="#767676"/>
<path d="M54.8278 59.8542H51.4792L42.6144 82.8833H48.1127L49.5927 79.0681H56.239L57.5665 82.8833H63.0379L54.8278 59.8542ZM57.6981 76.9054H48.1456L46.6656 80.7206H45.682L52.9203 61.9864H53.3628L60.0271 80.7206H59.0525L57.6981 76.9054Z" fill="#767676"/>
<path d="M73.5007 82.8833V65.1388H79.0528V59.8542H62.8359V65.1388H68.3581V82.8833H73.5007ZM64.9228 62.9761V62.0506H76.936V62.9761H71.3839V80.7206H70.4779V62.9761H64.9228Z" fill="#767676"/>
<path d="M81.9935 82.8833H87.1032V59.8542H81.9935V82.8833ZM84.0804 61.9864H85.0162V80.7542H84.0804V61.9864Z" fill="#767676"/>
<path d="M112.498 71.337C112.498 64.9865 107.427 59.8242 101.196 59.8242C94.9803 59.8242 89.9244 64.9895 89.9244 71.337C89.9244 77.7028 94.9803 82.8834 101.196 82.8834C107.427 82.8834 112.498 77.7058 112.498 71.337ZM92.0113 71.337C92.0113 66.1625 96.1313 61.9533 101.196 61.9533C106.276 61.9533 110.411 66.1625 110.411 71.337C110.411 76.5298 106.276 80.7513 101.196 80.7513C96.1313 80.7513 92.0113 76.5298 92.0113 71.337Z" fill="#767676"/>
<path d="M109.533 71.3367C109.533 66.657 105.793 62.8479 101.194 62.8479C96.6138 62.8479 92.8855 66.657 92.8855 71.3367C92.8855 76.0347 96.6138 79.856 101.194 79.856C105.793 79.859 109.533 76.0347 109.533 71.3367ZM101.194 78.4814C97.3553 78.4814 94.2309 75.2771 94.2309 71.3367C94.2309 67.4146 97.3553 64.2225 101.194 64.2225C105.051 64.2225 108.187 67.4146 108.187 71.3367C108.187 75.2771 105.051 78.4814 101.194 78.4814Z" fill="#767676"/>
<path d="M129.475 59.8242V72.3786L120.234 59.8242H115.961V82.8834H121.101V69.7639L130.803 82.8834H134.645V59.8242H129.475ZM132.501 80.6902H131.837L119.02 63.3309V80.6902H118.084V61.9869H119.181L131.598 78.8116V61.9869H132.504V80.6902H132.501Z" fill="#767676"/>
<path d="M33.8609 89.4174L33.6546 88.9775C33.6127 88.8889 33.5141 88.8522 33.4274 88.895L31.9623 89.6159L31.6215 88.8919L33.0865 88.171C33.1732 88.1283 33.2061 88.0275 33.1672 87.9389L32.9609 87.499C32.9191 87.4104 32.8204 87.3738 32.7337 87.4165L28.7332 89.3868C28.6465 89.4296 28.6106 89.5304 28.6525 89.619L28.8588 90.0588C28.9006 90.1474 28.9993 90.1841 29.086 90.1413L30.9248 89.2371L31.2657 89.9611L29.4269 90.8653C29.3402 90.908 29.3073 91.0088 29.3461 91.0974L29.5524 91.5373C29.5913 91.6198 29.693 91.6625 29.7797 91.6198L33.7802 89.6495C33.8669 89.6067 33.8968 89.4968 33.8609 89.4174Z" fill="#767676"/>
<path d="M34.6551 90.9017L34.4219 90.474C34.3741 90.3884 34.2664 90.361 34.1827 90.4098L30.3108 92.6154C30.2271 92.6643 30.1972 92.7682 30.245 92.8537L30.4782 93.2814C30.526 93.3669 30.6277 93.3975 30.7114 93.3486L34.5833 91.143C34.6671 91.0941 34.7 90.9872 34.6551 90.9017Z" fill="#767676"/>
<path d="M34.7965 94.9827C34.8772 94.9308 34.9011 94.8239 34.8473 94.7414L34.339 93.9289C34.2882 93.8464 34.1836 93.8219 34.1029 93.8769L33.7471 94.1091C33.6663 94.161 33.6364 94.271 33.6903 94.3535L33.8487 94.607L32.7993 95.2912C32.7186 95.3432 32.611 95.3157 32.5601 95.2332L32.2851 94.7933C32.2372 94.717 32.2552 94.6039 32.3359 94.552L34.7546 92.9758C34.8294 92.9269 34.943 92.9514 34.9908 93.0277L35.2659 93.4676C35.3167 93.5501 35.2928 93.6661 35.218 93.715L34.9878 93.8647C34.9071 93.9166 34.8832 94.0235 34.937 94.106L35.1941 94.5184C35.245 94.6009 35.3496 94.6253 35.4303 94.5703L35.7233 94.3779C36.1329 94.1121 36.2465 93.5562 35.9894 93.1438L35.5858 92.4962C35.3257 92.0777 34.7875 91.9586 34.3779 92.2244L31.8216 93.8922C31.418 94.1549 31.2984 94.7139 31.5555 95.1263L31.9592 95.7739C32.2163 96.1862 32.7634 96.3084 33.167 96.0457L34.7965 94.9827Z" fill="#767676"/>
<path d="M38.2314 96.345L37.9444 95.9541C37.8876 95.8747 37.7829 95.8624 37.7052 95.9205L36.4076 96.9223L35.9352 96.2809L37.2328 95.2791C37.3076 95.221 37.3225 95.1141 37.2657 95.0347L36.9787 94.6437C36.9219 94.5643 36.8172 94.5521 36.7395 94.6102L33.1936 97.3438C33.1188 97.4019 33.1039 97.5088 33.1607 97.5882L33.4477 97.9791C33.5045 98.0586 33.6091 98.0738 33.6869 98.0127L35.3163 96.7574L35.7887 97.3988L34.1593 98.6572C34.0815 98.7153 34.0696 98.8252 34.1264 98.9016L34.4134 99.2925C34.4672 99.3658 34.5749 99.3872 34.6526 99.3262L38.1985 96.5925C38.2763 96.5314 38.2852 96.4184 38.2314 96.345Z" fill="#767676"/>
<path d="M39.4005 102.72L41.0897 101.043C41.4724 100.665 41.4814 100.041 41.1107 99.6505L40.71 99.2289C40.3393 98.8379 39.7294 98.8287 39.3467 99.2075L37.2927 101.245C36.9159 101.621 36.907 102.241 37.2777 102.632L38.2195 103.622C38.2853 103.692 38.3959 103.698 38.4647 103.631L38.7846 103.316C38.8534 103.249 38.8504 103.136 38.7936 103.075L38.6022 102.873C38.8683 102.983 39.1852 102.934 39.4005 102.72ZM38.3421 102.601L37.8667 102.1C37.8009 102.03 37.8009 101.911 37.8637 101.85L39.9177 99.8124C39.9865 99.7452 40.1031 99.7452 40.1689 99.8154L40.5217 100.185C40.5875 100.255 40.5875 100.374 40.5187 100.442L38.3421 102.601Z" fill="#767676"/>
<path d="M44.1064 102.488L43.7477 102.164C43.6759 102.1 43.5653 102.112 43.5025 102.185L41.0957 104.987C41.0329 105.06 40.9223 105.063 40.8505 104.999L40.4708 104.657C40.3991 104.593 40.3871 104.48 40.4499 104.406L42.8567 101.608C42.9195 101.535 42.9165 101.422 42.8447 101.358L42.4859 101.034C42.4142 100.97 42.3036 100.982 42.2408 101.055L39.7802 103.918C39.4632 104.284 39.4991 104.855 39.8609 105.179L40.426 105.686C40.7848 106.01 41.3438 105.97 41.6608 105.604L44.1214 102.741C44.1782 102.665 44.1782 102.552 44.1064 102.488Z" fill="#767676"/>
<path d="M46.1816 104.131L45.3624 103.502C45.2907 103.447 45.195 103.453 45.1292 103.517L42.3935 106.236C42.3636 106.267 42.3517 106.282 42.3337 106.303L41.972 106.795C41.9151 106.874 41.9301 106.981 42.0048 107.039L42.3875 107.333C42.4653 107.391 42.5699 107.375 42.6267 107.299L43.0005 106.792L43.733 107.354L43.3592 107.861C43.3024 107.941 43.3174 108.048 43.3891 108.103L43.7778 108.399C43.8555 108.457 43.9602 108.442 44.017 108.365L44.3788 107.873C44.3967 107.852 44.4087 107.834 44.4266 107.797L46.2265 104.36C46.2623 104.29 46.2534 104.186 46.1816 104.131ZM44.1246 106.664L43.5446 106.218L45.2817 104.47L44.1246 106.664Z" fill="#767676"/>
<path d="M46.6564 109.398L45.8552 108.863L47.945 105.579C47.9958 105.497 47.9749 105.39 47.8942 105.338L47.4935 105.072C47.4128 105.02 47.3082 105.042 47.2574 105.124L44.8356 108.93C44.7818 109.013 44.8057 109.12 44.8865 109.171L46.2319 110.066C46.3126 110.118 46.4172 110.097 46.4681 110.015L46.7073 109.639C46.7581 109.556 46.7371 109.449 46.6564 109.398Z" fill="#767676"/>
<path d="M50.1383 106.749L49.7257 106.505C49.642 106.456 49.5373 106.489 49.4895 106.575L47.2681 110.494C47.2203 110.579 47.2472 110.683 47.3309 110.732L47.7435 110.977C47.8272 111.025 47.9288 110.998 47.9767 110.912L50.1981 106.993C50.2429 106.908 50.219 106.798 50.1383 106.749Z" fill="#767676"/>
<path d="M52.6742 108.833L52.8775 108.424C52.9194 108.335 52.8805 108.231 52.8028 108.188L51.0298 107.269C50.9461 107.223 50.8445 107.26 50.7996 107.345L50.5963 107.755C50.5545 107.843 50.5873 107.944 50.6711 107.99L51.1883 108.259L49.4602 111.738C49.4153 111.823 49.4572 111.93 49.5349 111.973L49.9625 112.193C50.0492 112.236 50.1478 112.202 50.1927 112.116L51.9208 108.637L52.444 108.909C52.5248 108.949 52.6324 108.918 52.6742 108.833Z" fill="#767676"/>
<path d="M55.4981 110.323L55.7612 109.685C55.7971 109.596 55.7582 109.495 55.6685 109.456L55.229 109.266C55.1393 109.23 55.0436 109.269 55.0047 109.361L54.8044 109.85C54.7835 109.902 54.7506 109.947 54.7117 109.984L53.9015 110.711L53.8417 109.611C53.8357 109.556 53.8447 109.498 53.8656 109.446L54.0659 108.958C54.1018 108.866 54.0629 108.768 53.9732 108.729L53.5307 108.539C53.441 108.503 53.3453 108.542 53.3065 108.631L53.0434 109.269C53.0135 109.34 53.0045 109.419 53.0015 109.495L53.1181 111.521L52.4334 113.182C52.3976 113.274 52.4364 113.372 52.5261 113.412L52.9656 113.601C53.0553 113.638 53.151 113.598 53.1899 113.506L53.8716 111.844L55.3635 110.51C55.4263 110.458 55.4682 110.393 55.4981 110.323Z" fill="#767676"/>
<path d="M55.6919 113.793L55.2614 113.637C55.1717 113.604 55.079 113.647 55.0461 113.738L54.8906 114.184C54.8577 114.276 54.9056 114.368 54.9982 114.401L55.1208 114.447L54.9893 114.575C54.9594 114.603 54.9325 114.636 54.9175 114.676L54.8756 114.801C54.8577 114.853 54.8876 114.917 54.9325 114.933L55.1507 115.012C55.1956 115.027 55.2554 115 55.2763 114.945L55.2883 114.911C55.3002 114.878 55.3301 114.853 55.3421 114.841L55.5394 114.646C55.5633 114.618 55.5813 114.587 55.5932 114.554L55.7846 114.001C55.8115 113.909 55.7696 113.821 55.6919 113.793Z" fill="#767676"/>
<path d="M60.4643 115.214L59.5375 114.978L60.4643 111.179C60.4882 111.084 60.4314 110.989 60.3387 110.968L59.8753 110.849C59.7827 110.824 59.693 110.882 59.669 110.977L58.5957 115.382C58.5718 115.476 58.6286 115.568 58.7213 115.592L60.2789 115.99C60.3716 116.014 60.4613 115.956 60.4852 115.861L60.5899 115.427C60.6108 115.33 60.557 115.238 60.4643 115.214Z" fill="#767676"/>
<path d="M63.829 111.716L63.0906 111.585C62.6122 111.499 62.1607 111.832 62.077 112.318L61.5598 115.363C61.4761 115.852 61.793 116.31 62.2714 116.396L63.0098 116.527C63.4822 116.61 63.9367 116.289 64.0204 115.8L64.5376 112.755C64.6213 112.266 64.2984 111.799 63.829 111.716ZM63.2281 115.568C63.2132 115.666 63.1175 115.733 63.0218 115.715L62.5225 115.626C62.4268 115.611 62.3611 115.513 62.379 115.415L62.8693 112.529C62.8873 112.431 62.9799 112.379 63.0726 112.394L63.5719 112.483C63.6676 112.498 63.7364 112.584 63.7184 112.678L63.2281 115.568Z" fill="#767676"/>
<path d="M68.7911 112.266L68.1932 112.214C68.1304 112.208 68.0796 112.254 68.0766 112.315L68.0287 112.92C68.0258 112.968 68.0228 112.996 68.0108 113.051L67.67 114.801L67.4726 112.251C67.4636 112.193 67.4188 112.147 67.365 112.144L66.8478 112.101C66.7939 112.095 66.7431 112.134 66.7311 112.189L66.1272 114.673L66.0644 112.889C66.0614 112.834 66.0644 112.807 66.0674 112.758L66.1152 112.153C66.1212 112.092 66.0764 112.037 66.0166 112.034L65.4186 111.982C65.3588 111.976 65.305 112.021 65.302 112.083L65.2482 112.752C65.2452 112.785 65.2422 112.828 65.2452 112.892L65.4694 116.735C65.4754 116.827 65.5382 116.894 65.6279 116.903L66.1601 116.949C66.2408 116.955 66.3215 116.9 66.3365 116.808L66.9644 113.955L67.1258 116.876C67.1318 116.967 67.1946 117.034 67.2843 117.044L67.8075 117.089C67.8972 117.096 67.9689 117.041 67.9899 116.952L68.827 113.198C68.839 113.136 68.842 113.094 68.845 113.06L68.8988 112.391C68.8958 112.324 68.8509 112.272 68.7911 112.266Z" fill="#767676"/>
<path d="M72.7162 112.208L71.5412 112.266C71.4455 112.272 71.3738 112.351 71.3797 112.449L71.598 116.982C71.604 117.08 71.6817 117.153 71.7774 117.147L72.2558 117.123C72.3514 117.117 72.4232 117.037 72.4172 116.939L72.3186 114.911L72.8448 114.884C73.4397 114.853 73.9062 114.328 73.8763 113.714L73.8553 113.268C73.8254 112.654 73.3082 112.177 72.7162 112.208ZM72.8029 114.041L72.2767 114.068L72.2259 113.036L72.7521 113.008C72.9016 113.002 73.0242 113.121 73.0301 113.274L73.0541 113.754C73.063 113.903 72.9524 114.032 72.8029 114.041Z" fill="#767676"/>
<path d="M77.2756 115.537L76.5222 114.45C76.8959 114.233 77.1321 113.796 77.0723 113.326L77.0185 112.889C76.9437 112.278 76.4026 111.841 75.8046 111.918L74.6326 112.068C74.5429 112.08 74.4712 112.165 74.4831 112.263L75.0303 116.765C75.0422 116.863 75.1319 116.927 75.2216 116.918L75.697 116.857C75.7927 116.844 75.8584 116.759 75.8465 116.661L75.5893 114.563L76.4833 115.843C76.5281 115.922 76.5491 115.995 76.558 116.072L76.6178 116.557C76.6298 116.655 76.7195 116.719 76.8152 116.707L77.2905 116.646C77.3862 116.634 77.443 116.548 77.4311 116.454L77.3474 115.76C77.3414 115.684 77.3175 115.601 77.2756 115.537ZM76.0318 113.747L75.5027 113.815L75.3771 112.782L75.9063 112.715C76.0498 112.697 76.1843 112.797 76.2023 112.95L76.2591 113.43C76.28 113.589 76.1753 113.729 76.0318 113.747Z" fill="#767676"/>
<path d="M78.2211 111.527L77.7517 111.615C77.659 111.634 77.5992 111.728 77.6171 111.826L78.4185 116.283C78.4364 116.381 78.5231 116.442 78.6188 116.424L79.0883 116.335C79.181 116.317 79.2437 116.228 79.2258 116.133L78.4245 111.677C78.4065 111.579 78.3168 111.509 78.2211 111.527Z" fill="#767676"/>
<path d="M82.2313 113.472C82.2074 113.378 82.1147 113.314 82.022 113.338L81.5586 113.454C81.4659 113.479 81.4121 113.576 81.436 113.671L81.6902 114.737C81.7141 114.832 81.6513 114.926 81.5646 114.948L81.0653 115.073C80.9726 115.098 80.8739 115.043 80.853 114.948L80.1713 112.101C80.1474 112.006 80.2102 111.912 80.3029 111.887L80.8022 111.762C80.8889 111.74 80.9845 111.795 81.0085 111.89L81.1699 112.562C81.1938 112.657 81.2865 112.721 81.3792 112.697L81.8426 112.581C81.9353 112.556 81.9891 112.458 81.9652 112.364L81.7858 111.618C81.6692 111.136 81.1998 110.845 80.7274 110.962L79.9979 111.145C79.5255 111.264 79.2415 111.744 79.3551 112.226L80.0756 115.238C80.1892 115.711 80.6676 116.011 81.134 115.895L81.8636 115.711C82.336 115.592 82.62 115.107 82.5064 114.63L82.2313 113.472Z" fill="#767676"/>
<path d="M85.4209 113.983C85.391 113.891 85.2983 113.839 85.2056 113.87L84.3027 114.166L83.8632 112.764L84.4342 112.574C84.5239 112.544 84.5748 112.449 84.5449 112.355L84.4163 111.942C84.3864 111.851 84.2937 111.799 84.201 111.829L83.63 112.015L83.319 111.026L84.222 110.729C84.3117 110.699 84.3625 110.604 84.3326 110.51L84.198 110.085C84.1681 109.993 84.0755 109.941 83.9828 109.972L82.455 110.473C82.3653 110.503 82.3144 110.598 82.3443 110.693L83.7017 115.012C83.7316 115.104 83.8243 115.156 83.917 115.125L85.4448 114.624C85.5345 114.594 85.5853 114.499 85.5554 114.404L85.4209 113.983Z" fill="#767676"/>
<path d="M87.2797 113.989C87.2797 113.952 87.2737 113.915 87.2618 113.885L87.0584 113.338C87.0255 113.246 86.9358 113.207 86.8611 113.237L86.4335 113.402C86.3438 113.436 86.2989 113.53 86.3318 113.622L86.4963 114.065C86.5292 114.157 86.6249 114.193 86.7146 114.16L86.8372 114.114L86.8192 114.3C86.8132 114.34 86.8132 114.383 86.8282 114.422L86.873 114.547C86.891 114.599 86.9538 114.627 86.9986 114.612L87.2169 114.526C87.2618 114.508 87.2887 114.447 87.2707 114.395L87.2588 114.361C87.2468 114.328 87.2528 114.288 87.2558 114.273L87.2797 113.989Z" fill="#767676"/>
<path d="M91.6005 109.779C91.4719 109.517 91.2567 109.33 91.0025 109.236C91.0354 109.022 90.9995 108.808 90.8979 108.603L90.6976 108.197C90.4285 107.647 89.7737 107.421 89.2355 107.699L88.1741 108.246C88.0874 108.289 88.0545 108.393 88.0994 108.481L90.0966 112.535C90.1385 112.623 90.2401 112.657 90.3268 112.611L91.4869 112.015C92.0251 111.74 92.2374 111.068 91.9653 110.519L91.6005 109.779ZM89.107 108.661L89.5883 108.414C89.7169 108.347 89.8813 108.405 89.9501 108.539L90.1624 108.97C90.2282 109.101 90.1714 109.269 90.0428 109.336L89.5614 109.584L89.107 108.661ZM91.1281 111.288L90.5481 111.588L89.9082 110.289L90.4883 109.99C90.6168 109.923 90.7813 109.981 90.85 110.118L91.2387 110.91C91.3105 111.053 91.2567 111.221 91.1281 111.288Z" fill="#767676"/>
<path d="M94.7615 109.407C94.7137 109.324 94.609 109.297 94.5283 109.346L93.7151 109.844L92.9736 108.579L93.4909 108.264C93.5716 108.215 93.5985 108.108 93.5507 108.026L93.3324 107.653C93.2816 107.571 93.1799 107.543 93.0992 107.592L92.582 107.907L92.0588 107.015L92.875 106.517C92.9557 106.468 92.9826 106.361 92.9348 106.279L92.7105 105.897C92.6627 105.814 92.558 105.787 92.4773 105.836L91.0991 106.679C91.0183 106.728 90.9914 106.835 91.0393 106.917L93.3204 110.809C93.3683 110.891 93.4729 110.919 93.5536 110.87L94.9319 110.027C95.0126 109.978 95.0395 109.871 94.9917 109.789L94.7615 109.407Z" fill="#767676"/>
<path d="M96.8679 106.3C96.5181 105.79 95.8424 105.671 95.346 106.025L95.0889 106.208C94.9633 106.291 94.7959 106.266 94.7092 106.141L94.47 105.793C94.3833 105.667 94.4192 105.496 94.5418 105.411L94.7989 105.228C94.9215 105.139 95.0889 105.163 95.1756 105.292L95.2593 105.411C95.3131 105.49 95.4178 105.509 95.4985 105.454L95.8902 105.173C95.968 105.118 95.9859 105.011 95.9321 104.928L95.8663 104.83C95.5224 104.326 94.8407 104.201 94.3444 104.556L94.0873 104.739C93.5939 105.09 93.4743 105.793 93.8182 106.294L94.0424 106.621C94.3863 107.125 95.065 107.235 95.5613 106.889L95.8184 106.706C95.941 106.618 96.1085 106.645 96.1952 106.77L96.7035 107.513C96.7902 107.638 96.7603 107.812 96.6377 107.901L96.3805 108.084C96.258 108.172 96.0875 108.142 96.0008 108.017L95.66 107.519C95.6062 107.439 95.5015 107.421 95.4208 107.476L95.0291 107.757C94.9514 107.812 94.9334 107.919 94.9873 108.001L95.3102 108.469C95.654 108.973 96.3417 109.095 96.832 108.744L97.0892 108.56C97.5825 108.209 97.7021 107.506 97.3583 107.005L96.8679 106.3Z" fill="#767676"/>
<path d="M97.4001 103.178L97.8545 102.8C97.9232 102.742 97.9382 102.629 97.8784 102.555L97.5944 102.198C97.5346 102.121 97.424 102.115 97.3552 102.173L95.8155 103.456C95.7407 103.517 95.7318 103.627 95.7916 103.701L96.0756 104.058C96.1354 104.135 96.243 104.144 96.3148 104.083L96.7632 103.707L99.176 106.728C99.2358 106.804 99.3464 106.81 99.4151 106.752L99.7859 106.444C99.8606 106.383 99.8696 106.273 99.8098 106.2L97.4001 103.178Z" fill="#767676"/>
<path d="M102.98 100.511C102.911 100.444 102.8 100.441 102.735 100.511L102.403 100.863C102.337 100.933 102.343 101.046 102.412 101.113L103.183 101.877C103.252 101.944 103.249 102.06 103.186 102.124L102.83 102.5C102.765 102.57 102.654 102.576 102.585 102.509L100.522 100.469C100.454 100.401 100.457 100.285 100.522 100.218L100.878 99.8424C100.941 99.7782 101.051 99.7691 101.12 99.8394L101.608 100.319C101.676 100.386 101.787 100.389 101.853 100.319L102.185 99.9676C102.25 99.8974 102.244 99.7844 102.176 99.7172L101.634 99.1826C101.285 98.8374 100.735 98.8466 100.397 99.204L99.8735 99.7569C99.5357 100.114 99.5446 100.676 99.8944 101.022L102.074 103.178C102.418 103.517 102.977 103.508 103.312 103.157L103.835 102.604C104.173 102.246 104.158 101.681 103.814 101.339L102.98 100.511Z" fill="#767676"/>
<path d="M103.164 96.2108C103.09 96.1497 102.982 96.1649 102.925 96.2352L102.62 96.6109C102.56 96.6873 102.569 96.7942 102.644 96.8584L103.897 97.9183L103.395 98.5354L102.142 97.4754C102.067 97.4143 101.962 97.4235 101.9 97.4998L101.595 97.8756C101.535 97.9519 101.544 98.0589 101.619 98.12L105.039 101.013C105.114 101.074 105.218 101.065 105.281 100.988L105.586 100.613C105.646 100.536 105.637 100.429 105.562 100.368L103.99 99.0364L104.492 98.4193L106.065 99.7511C106.139 99.8122 106.244 99.8031 106.304 99.7267L106.609 99.351C106.665 99.2807 106.66 99.1677 106.585 99.1066L103.164 96.2108Z" fill="#767676"/>
<path d="M108.149 95.6487L105.656 93.8954C105.255 93.6144 104.705 93.7182 104.433 94.1214L104.005 94.7537C103.73 95.1631 103.835 95.719 104.236 96L106.729 97.7534C107.13 98.0344 107.671 97.9336 107.946 97.5243L108.374 96.892C108.646 96.4888 108.55 95.9298 108.149 95.6487ZM107.656 96.5376L107.369 96.9622C107.315 97.0416 107.202 97.063 107.121 97.008L104.756 95.3463C104.678 95.2914 104.666 95.1814 104.72 95.102L105.007 94.6774C105.061 94.598 105.166 94.5674 105.243 94.6224L107.608 96.2841C107.692 96.3421 107.713 96.4582 107.656 96.5376Z" fill="#767676"/>
<path d="M109.752 94.4084L105.982 92.0225C105.901 91.9706 105.791 91.992 105.74 92.0745L105.489 92.49C105.438 92.5724 105.468 92.6824 105.549 92.7343L109.319 95.1202C109.399 95.1721 109.504 95.1477 109.555 95.0622L109.806 94.6467C109.86 94.5642 109.836 94.4573 109.752 94.4084Z" fill="#767676"/>
<path d="M110.871 90.905L109.848 90.3399C109.765 90.294 109.657 90.3215 109.612 90.4071L109.385 90.8378C109.34 90.9233 109.376 91.0302 109.46 91.0761L110.405 91.5984C110.488 91.6442 110.515 91.7542 110.473 91.8337L110.231 92.2949C110.186 92.3805 110.082 92.4171 109.995 92.3713L107.471 90.9753C107.388 90.9294 107.361 90.8195 107.406 90.7339L107.651 90.2727C107.693 90.1932 107.797 90.1566 107.881 90.2024L108.476 90.5323C108.56 90.5781 108.667 90.5506 108.712 90.4651L108.939 90.0344C108.984 89.9488 108.948 89.8419 108.865 89.7931L108.204 89.4265C107.776 89.1913 107.25 89.3501 107.02 89.7869L106.661 90.4621C106.431 90.8989 106.586 91.4365 107.014 91.6717L109.684 93.1472C110.106 93.3794 110.641 93.2175 110.868 92.7867L111.227 92.1116C111.457 91.6778 111.293 91.1372 110.871 90.905Z" fill="#767676"/>
<path d="M112.754 88.4552L112.356 88.2719C112.269 88.2322 112.171 88.2688 112.129 88.3574L111.737 89.2402L110.425 88.6323L110.673 88.0733C110.712 87.9847 110.676 87.8839 110.589 87.8411L110.203 87.664C110.117 87.6243 110.018 87.6609 109.976 87.7495L109.728 88.3085L108.801 87.8809L109.193 86.998C109.232 86.9094 109.196 86.8086 109.106 86.7659L108.708 86.5826C108.622 86.5429 108.523 86.5795 108.481 86.6681L107.82 88.1619C107.782 88.2505 107.817 88.3513 107.904 88.3941L111.949 90.2636C112.036 90.3033 112.135 90.2666 112.177 90.175L112.837 88.6812C112.879 88.5957 112.84 88.4949 112.754 88.4552Z" fill="#767676"/>
<path d="M28.8523 49.8839L32.7989 51.9608C32.8826 52.0066 32.9843 51.973 33.0291 51.8845L33.2474 51.4508C33.2922 51.3622 33.2593 51.2614 33.1726 51.2156L31.4056 50.287L31.6448 49.8106C31.9169 49.2699 31.7046 48.5949 31.1694 48.3139L30.7808 48.1093C30.2456 47.8283 29.5848 48.0451 29.3128 48.5858L28.7746 49.6517C28.7327 49.7372 28.7656 49.8411 28.8523 49.8839ZM30.0124 48.9492C30.0812 48.8118 30.2426 48.766 30.3771 48.8362L30.7957 49.0561C30.9243 49.1233 30.9781 49.2852 30.9123 49.4226L30.6702 49.8991L29.7702 49.4257L30.0124 48.9492Z" fill="#767676"/>
<path d="M30.6577 46.4413L34.4219 48.8454C34.5027 48.8973 34.6103 48.8668 34.6581 48.7904L34.9123 48.375C34.9631 48.2925 34.9392 48.1856 34.8585 48.1336L33.1034 47.0126L34.6372 47.1103C34.7239 47.1256 34.7957 47.1531 34.8585 47.1958L35.2651 47.4555C35.3458 47.5074 35.4534 47.4769 35.5043 47.3944L35.7584 46.9789C35.8092 46.8965 35.7823 46.7957 35.7016 46.7437L35.1216 46.3741C35.0588 46.3344 34.981 46.3008 34.9063 46.2947L33.6057 46.2061C33.6775 45.7754 33.4921 45.3111 33.1004 45.0606L32.7356 44.8284C32.2244 44.5016 31.5517 44.6574 31.2317 45.1767L30.6068 46.2C30.556 46.2764 30.5769 46.3894 30.6577 46.4413ZM31.8955 45.6013C31.9702 45.476 32.1347 45.4333 32.2632 45.5157L32.6639 45.7693C32.7954 45.8548 32.8373 46.0289 32.7596 46.1511L32.4785 46.6124L31.6144 46.0625L31.8955 45.6013Z" fill="#767676"/>
<path d="M36.306 45.8673C36.3837 45.9254 36.4884 45.9101 36.5452 45.8307L37.496 44.511C37.5528 44.4316 37.5378 44.3247 37.4601 44.2667L37.1073 44.0009C37.0295 43.9428 36.9249 43.9581 36.8681 44.0376L36.306 44.8196L35.1459 43.9459L35.5017 43.451C35.5585 43.3716 35.5436 43.2647 35.4659 43.2067L35.125 42.9501C35.0473 42.892 34.9426 42.9073 34.8858 42.9867L34.53 43.4816L33.7108 42.8645L34.2729 42.0825C34.3297 42.0031 34.3148 41.8962 34.237 41.8382L33.8842 41.5724C33.8065 41.5144 33.7019 41.5296 33.6451 41.6091L32.6943 42.9287C32.6375 43.0081 32.6524 43.115 32.7302 43.1731L36.306 45.8673Z" fill="#767676"/>
<path d="M37.4667 42.9742C37.5026 43.017 37.5384 43.0476 37.5534 43.0628L38.0258 43.4996C38.0976 43.5638 38.2022 43.5577 38.268 43.4844L38.5849 43.1178C38.6477 43.0445 38.6417 42.9376 38.57 42.8704L38.1723 42.5099C38.1424 42.4824 38.1155 42.458 38.0916 42.4274L36.6355 40.7687L38.3666 41.9326C38.4384 41.9784 38.5341 41.9631 38.5879 41.899L38.9317 41.5019C38.9856 41.4408 38.9856 41.3461 38.9317 41.2789L37.5923 39.666L39.3832 40.9398C39.4191 40.9612 39.443 40.9856 39.4759 41.0131L39.8735 41.3736C39.9453 41.4377 40.0529 41.4316 40.1157 41.3583L40.4326 40.9917C40.4924 40.9245 40.4894 40.8085 40.4177 40.7443L39.9363 40.3197C39.9214 40.3044 39.8855 40.2739 39.8406 40.2403L36.7013 38.1448C36.6295 38.0989 36.5398 38.1111 36.48 38.1784L36.1362 38.5755C36.0824 38.6396 36.0824 38.7313 36.1362 38.7985L37.6939 40.7382L35.625 39.388C35.5532 39.3422 35.4635 39.3544 35.4037 39.4216L35.0629 39.8126C35.0031 39.8798 35.006 39.9745 35.0569 40.0417L37.4667 42.9742Z" fill="#767676"/>
<path d="M41.1674 40.0174C41.2331 40.0877 41.3408 40.0907 41.4095 40.0205L41.7533 39.6814C41.8221 39.6142 41.8251 39.5042 41.7563 39.434L38.6709 36.1808C38.6052 36.1105 38.4945 36.1044 38.4258 36.1716L38.082 36.5107C38.0132 36.5779 38.0162 36.6909 38.082 36.7612L41.1674 40.0174Z" fill="#767676"/>
<path d="M42.1626 38.05C42.4705 38.4227 43.0297 38.4716 43.3944 38.1569L43.9685 37.6621C44.3333 37.3475 44.3811 36.7763 44.0731 36.4036L41.6662 33.4927C41.6035 33.4193 41.4928 33.4041 41.4211 33.4652L41.0563 33.7798C40.9845 33.8439 40.9786 33.9569 41.0414 34.0303L43.3974 36.8771C43.4602 36.9504 43.4453 37.0634 43.3705 37.1275L42.9848 37.4605C42.9131 37.5246 42.7994 37.5185 42.7396 37.4452L40.3836 34.5984C40.3208 34.5251 40.2102 34.5098 40.1384 34.5709L39.7736 34.8855C39.7019 34.9497 39.6959 35.0627 39.7587 35.136L42.1626 38.05Z" fill="#767676"/>
<path d="M44.885 35.6645C44.9119 35.7134 44.9358 35.7531 44.9508 35.7715L45.3066 36.3091C45.3604 36.3885 45.465 36.4099 45.5458 36.3549L45.9374 36.0769C46.0152 36.0219 46.0361 35.915 45.9823 35.8356L45.6803 35.3866C45.6564 35.353 45.6384 35.3224 45.6205 35.2858L44.598 33.3186L46.0032 34.8704C46.06 34.9314 46.1587 34.9406 46.2244 34.8917L46.652 34.5893C46.7208 34.5404 46.7417 34.4519 46.7058 34.3724L45.7819 32.4786L47.2201 34.1525C47.25 34.183 47.2679 34.2105 47.2918 34.2472L47.5938 34.6962C47.6476 34.7757 47.7523 34.797 47.83 34.742L48.2246 34.4641C48.2964 34.4122 48.3233 34.3022 48.2665 34.2228L47.8987 33.6943C47.8868 33.676 47.8599 33.6363 47.824 33.5935L45.2677 30.7955C45.2109 30.7344 45.1182 30.7221 45.0465 30.7741L44.6189 31.0765C44.5501 31.1254 44.5292 31.217 44.5651 31.2934L45.6235 33.5568L43.9312 31.7424C43.8744 31.6813 43.7818 31.6691 43.71 31.721L43.2884 32.0173C43.2167 32.0692 43.1928 32.1609 43.2286 32.2372L44.885 35.6645Z" fill="#767676"/>
<path d="M50.6586 32.0021C50.8709 32.442 51.4001 32.6253 51.8307 32.4114L52.5064 32.0724C52.9369 31.8555 53.1163 31.3148 52.907 30.875L52.0549 29.1002C52.013 29.0117 51.9114 28.9781 51.8247 29.0208L50.9785 29.4454C50.8918 29.4882 50.8589 29.592 50.9008 29.6776L51.0892 30.0655C51.131 30.1541 51.2357 30.1938 51.3194 30.151L51.5825 30.0197L52.1326 31.159C52.1745 31.2476 52.1327 31.3515 52.0489 31.3943L51.5885 31.6264C51.5078 31.6661 51.4031 31.6356 51.3613 31.547L50.0965 28.9139C50.0577 28.8314 50.0935 28.7215 50.1743 28.6818L50.6347 28.4496C50.7214 28.4069 50.8291 28.4435 50.8679 28.526L50.9875 28.7765C51.0294 28.865 51.131 28.8986 51.2177 28.8559L51.6483 28.639C51.735 28.5962 51.7679 28.4924 51.726 28.4068L51.5705 28.0861C51.3553 27.6401 50.8291 27.463 50.3985 27.6768L49.7228 28.0159C49.2863 28.2358 49.1099 28.7673 49.3251 29.2133L50.6586 32.0021Z" fill="#767676"/>
<path d="M53.8365 30.4682C53.8455 30.511 53.8515 30.5293 53.8634 30.5537L54.0817 31.1249C54.1176 31.2166 54.2132 31.2593 54.3029 31.2227L54.7484 31.0455C54.8381 31.0089 54.8799 30.9111 54.8441 30.8195L54.6168 30.2269L55.4689 29.8848L55.6961 30.4774C55.732 30.569 55.8277 30.6118 55.9114 30.5782L56.3628 30.3979C56.4525 30.3613 56.4944 30.2635 56.4585 30.1719L56.2403 29.6007C56.2313 29.5732 56.2223 29.5549 56.2014 29.5182L54.285 26.1459C54.2461 26.0787 54.1534 26.0329 54.0697 26.0665L53.116 26.4483C53.0323 26.4819 52.9845 26.5674 53.0054 26.656L53.8365 30.4682ZM55.0982 29.1914L54.4225 29.4602L53.8814 27.0317L55.0982 29.1914Z" fill="#767676"/>
<path d="M56.4689 26.7968C56.6393 27.3863 57.2493 27.71 57.8263 27.542L58.1282 27.4504C58.2717 27.4076 58.4242 27.484 58.4661 27.6306L58.7202 28.5012C58.7621 28.6478 58.6813 28.8035 58.5348 28.8494L58.2329 28.941C58.0894 28.9838 57.9369 28.9013 57.892 28.7516L57.7216 28.1682C57.6947 28.0735 57.602 28.0216 57.5093 28.0491L57.0519 28.1896C56.9592 28.2171 56.9084 28.3118 56.9383 28.4065L57.0968 28.9563C57.2672 29.5458 57.8801 29.8848 58.4571 29.7077L58.7591 29.616C59.3361 29.4419 59.665 28.8158 59.4945 28.2262L59.2554 27.4015C59.082 26.8059 58.478 26.473 57.895 26.6501L57.5931 26.7418C57.4466 26.7784 57.2971 26.7021 57.2522 26.5524L57.1327 26.1431C57.0908 25.9965 57.1745 25.8468 57.318 25.801L57.62 25.7094C57.7635 25.6666 57.916 25.743 57.9578 25.8896L57.9997 26.0301C58.0266 26.1248 58.1193 26.1767 58.2119 26.1492L58.6694 26.0087C58.7621 25.9812 58.8129 25.8865 58.783 25.7918L58.7501 25.6788C58.5797 25.0893 57.9728 24.7503 57.3898 24.9274L57.0878 25.019C56.5108 25.1931 56.1789 25.8193 56.3523 26.4088L56.4689 26.7968Z" fill="#767676"/>
<path d="M60.6702 28.1593C60.7688 28.645 61.2293 28.9536 61.7017 28.8528L62.4372 28.697C62.9066 28.5992 63.2146 28.1257 63.1159 27.6431L62.506 24.6159C62.4073 24.1302 61.9409 23.8156 61.4715 23.9133L60.736 24.0691C60.2606 24.1699 59.9586 24.6464 60.0572 25.1321L60.6702 28.1593ZM61.017 24.8297L61.5133 24.7259C61.606 24.7075 61.7017 24.7564 61.7196 24.8542L62.2997 27.7256C62.3176 27.8203 62.2548 27.9211 62.1621 27.9394L61.6658 28.0433C61.5731 28.0616 61.4745 27.9974 61.4565 27.9027L60.8795 25.0313C60.8585 24.9366 60.9243 24.8511 61.017 24.8297Z" fill="#767676"/>
<path d="M64.5956 28.3179L66.1892 28.1132C66.2849 28.101 66.3507 28.0155 66.3387 27.9177L66.2849 27.4748C66.2729 27.3771 66.1892 27.3129 66.0935 27.3251L65.1458 27.4473L64.6674 23.5618C64.6554 23.4641 64.5717 23.3999 64.4761 23.4121L64.0007 23.4732C63.905 23.4854 63.8422 23.571 63.8542 23.6687L64.4103 28.1713C64.4163 28.266 64.503 28.3301 64.5956 28.3179Z" fill="#767676"/>
<path d="M67.5648 27.9973L68.0431 27.9637C68.1388 27.9576 68.2075 27.8751 68.2016 27.7774L67.9086 23.2596C67.9026 23.1618 67.8219 23.0824 67.7262 23.0915L67.2479 23.1251C67.1522 23.1313 67.0834 23.2198 67.0894 23.3176L67.3824 27.8354C67.3884 27.9332 67.4691 28.0034 67.5648 27.9973Z" fill="#767676"/>
<path d="M69.5589 27.8843H70.0014C70.0971 27.8843 70.1718 27.8079 70.1718 27.7102L70.1748 24.8358L71.0658 27.7621C71.0867 27.8385 71.1555 27.8874 71.2302 27.8874H71.7355C71.8312 27.8874 71.906 27.811 71.906 27.7132L71.9119 23.1772C71.9119 23.0794 71.8372 23.0031 71.7415 23.0031H71.2841C71.1884 23.0031 71.1136 23.0794 71.1136 23.1772L71.1107 25.627L70.3153 23.1191C70.2884 23.0489 70.2257 23 70.1509 23H69.5619C69.4662 23 69.3915 23.0764 69.3915 23.1741L69.3855 27.7102C69.3885 27.8079 69.4632 27.8843 69.5589 27.8843Z" fill="#767676"/>
<path d="M73.232 27.9639L74.8315 28.0983C74.9272 28.1074 75.008 28.0372 75.0169 27.9394L75.0528 27.4934C75.0618 27.3957 74.993 27.3132 74.8973 27.304L73.9495 27.2246L74.0661 25.7553L74.6641 25.8042C74.7598 25.8134 74.8405 25.7431 74.8495 25.6454L74.8854 25.2146C74.8943 25.1169 74.8256 25.0344 74.7299 25.0252L74.1289 24.9764L74.2126 23.9408L75.1604 24.0203C75.2561 24.0294 75.3368 23.9592 75.3458 23.8614L75.3817 23.4154C75.3906 23.3177 75.3219 23.2352 75.2262 23.226L73.6266 23.0916C73.531 23.0825 73.4502 23.1527 73.4413 23.2505L73.0795 27.7745C73.0675 27.8722 73.1363 27.9547 73.232 27.9639Z" fill="#767676"/>
<path d="M76.2541 28.2813L76.3826 28.2996L76.278 28.4523C76.2541 28.4829 76.2332 28.5226 76.2272 28.5654L76.2092 28.6967C76.2003 28.7517 76.2421 28.8067 76.29 28.8128L76.5201 28.8464C76.568 28.8525 76.6218 28.8128 76.6278 28.7578L76.6337 28.7242C76.6397 28.6906 76.6636 28.657 76.6726 28.6448L76.8281 28.4126C76.846 28.379 76.858 28.3454 76.8639 28.3118L76.9446 27.7314C76.9566 27.6337 76.8998 27.5543 76.8191 27.5451L76.3647 27.4779C76.269 27.4626 76.1853 27.5237 76.1734 27.6184L76.1076 28.0888C76.0956 28.1866 76.1584 28.266 76.2541 28.2813Z" fill="#767676"/>
<path d="M78.1566 28.5807L79.3196 28.8311C79.9086 28.9594 80.4916 28.5684 80.6141 27.9697L81.1493 25.3824C81.2749 24.7746 80.8952 24.1789 80.3062 24.0506L79.1432 23.8001C79.0505 23.7787 78.9578 23.8459 78.9399 23.9406L78.025 28.373C78.0041 28.4707 78.0609 28.5593 78.1566 28.5807ZM79.6185 24.7074L80.1477 24.8204C80.2942 24.8509 80.3899 25.0006 80.36 25.1503L79.8069 27.8262C79.777 27.9758 79.6305 28.0736 79.484 28.0431L78.9548 27.93L79.6185 24.7074Z" fill="#767676"/>
<path d="M81.6191 29.4085L82.0796 29.5399C82.1722 29.5674 82.2649 29.5124 82.2888 29.4207L83.4937 25.0587C83.5206 24.964 83.4698 24.8632 83.3771 24.8357L82.9167 24.7044C82.824 24.6769 82.7283 24.738 82.7044 24.8327L81.4996 29.1947C81.4726 29.2863 81.5264 29.381 81.6191 29.4085Z" fill="#767676"/>
<path d="M83.5532 29.9981L85.069 30.5387C85.1587 30.5723 85.2544 30.5234 85.2873 30.4318L85.4308 30.0103C85.4637 29.9187 85.4159 29.8209 85.3262 29.7873L84.4292 29.4666L84.9046 28.0768L85.4727 28.2784C85.5624 28.312 85.658 28.2632 85.6909 28.1715L85.8314 27.7622C85.8643 27.6706 85.8165 27.5728 85.7268 27.5393L85.1587 27.3377L85.4966 26.3572L86.3935 26.6779C86.4832 26.7115 86.5789 26.6626 86.6118 26.571L86.7553 26.1495C86.7882 26.0579 86.7404 25.9601 86.6507 25.9265L85.1348 25.3859C85.0451 25.3523 84.9495 25.4011 84.9166 25.4928L83.4486 29.7751C83.4187 29.8698 83.4635 29.9675 83.5532 29.9981Z" fill="#767676"/>
<path d="M87.177 31.4189L87.464 31.5472C88.0142 31.7946 88.6629 31.538 88.9051 30.9759L89.243 30.1907C89.4881 29.6225 89.24 28.9687 88.6839 28.7182L88.3968 28.5899C88.2623 28.5227 88.1965 28.3639 88.2563 28.2203L88.4237 27.8323C88.4835 27.6918 88.645 27.6337 88.7825 27.6948L89.0696 27.8231C89.2071 27.8842 89.2729 28.0431 89.2131 28.1836L89.1563 28.318C89.1174 28.4066 89.1562 28.5074 89.243 28.5472L89.6795 28.7457C89.7662 28.7854 89.8648 28.7457 89.9037 28.6571L89.9515 28.5472C90.1937 27.985 89.9485 27.3252 89.3924 27.0746L89.1054 26.9463C88.5553 26.6989 87.9065 26.9555 87.6643 27.5176L87.5059 27.8812C87.2637 28.4433 87.5208 29.094 88.068 29.3476L88.355 29.4759C88.4925 29.537 88.5583 29.6958 88.4985 29.8364L88.1397 30.6673C88.0799 30.8079 87.9185 30.872 87.778 30.8109L87.4909 30.6826C87.3534 30.6215 87.2906 30.4565 87.3504 30.3129L87.5896 29.7569C87.6285 29.6683 87.5896 29.5675 87.5029 29.5278L87.0664 29.3292C86.9797 29.2895 86.881 29.3292 86.8421 29.4178L86.6149 29.9402C86.3757 30.5085 86.6269 31.1714 87.177 31.4189Z" fill="#767676"/>
<path d="M89.5819 32.5793L90.9961 33.3582C91.0798 33.4041 91.1814 33.3735 91.2263 33.288L91.4326 32.8939C91.4774 32.8084 91.4475 32.7046 91.3638 32.6587L90.5267 32.1975L91.2113 30.9023L91.7405 31.1925C91.8242 31.2384 91.9259 31.2078 91.9707 31.1223L92.171 30.7404C92.2159 30.6549 92.186 30.5511 92.1023 30.5052L91.5731 30.2151L92.0544 29.2987L92.8916 29.7599C92.9753 29.8057 93.0769 29.7752 93.1248 29.6897L93.3311 29.2956C93.3759 29.2101 93.346 29.1062 93.2623 29.0604L91.8481 28.2815C91.7644 28.2357 91.6628 28.2662 91.6179 28.3517L89.5131 32.3441C89.4653 32.4296 89.4952 32.5335 89.5819 32.5793Z" fill="#767676"/>
<path d="M92.2418 34.1066L93.5962 34.9863C93.6769 35.0383 93.7816 35.0138 93.8324 34.9313L94.0656 34.5556C94.1164 34.4732 94.0925 34.3663 94.0148 34.3143L93.2075 33.792L95.2615 30.4839C95.3124 30.4014 95.2885 30.2945 95.2077 30.2426L94.8041 29.9799C94.7234 29.928 94.6187 29.9524 94.5679 30.0349L92.188 33.8653C92.1372 33.9478 92.1611 34.0547 92.2418 34.1066Z" fill="#767676"/>
<path d="M94.9195 35.1422L94.6473 35.527C94.5905 35.6065 94.6115 35.7073 94.6892 35.7653L94.7939 35.8417L94.6324 35.9272C94.5965 35.9424 94.5606 35.9699 94.5367 36.0035L94.462 36.1105C94.4291 36.1563 94.441 36.2235 94.4799 36.254L94.6683 36.3915C94.7072 36.4189 94.7729 36.4098 94.8058 36.364L94.8268 36.3365C94.8477 36.309 94.8836 36.2907 94.8985 36.2846L95.1407 36.1532C95.1706 36.1318 95.1975 36.1074 95.2185 36.0799L95.5534 35.6034C95.6102 35.524 95.5952 35.4262 95.5264 35.3774L95.1557 35.1055C95.0749 35.0505 94.9733 35.0628 94.9195 35.1422Z" fill="#767676"/>
<path d="M96.6252 37.2622C96.6999 37.3233 96.8046 37.3111 96.8644 37.2378L98.156 35.6127L98.6284 36.0037C98.7032 36.0648 98.8078 36.0526 98.8676 35.9792L99.1397 35.6371C99.1995 35.5608 99.1905 35.4538 99.1158 35.3927L98.6434 35.0017L99.2802 34.2014L100.022 34.8184C100.096 34.8795 100.201 34.8704 100.261 34.794L100.536 34.4458C100.596 34.3694 100.584 34.2625 100.512 34.2014L99.2653 33.1658C99.1905 33.1047 99.0859 33.1139 99.0261 33.1903L96.2246 36.7124C96.1648 36.7887 96.1767 36.8957 96.2485 36.9567L96.6252 37.2622Z" fill="#767676"/>
<path d="M99.0096 39.3696L99.5537 39.898C99.9006 40.2341 100.46 40.2218 100.792 39.8675L103.363 37.1061C103.429 37.0359 103.432 36.9229 103.36 36.8557L103.013 36.5196C102.944 36.4524 102.834 36.4616 102.768 36.5319L100.253 39.2321C100.188 39.3024 100.077 39.3024 100.008 39.2321L99.6404 38.8748C99.5717 38.8076 99.5627 38.6945 99.6285 38.6243L102.143 35.924C102.209 35.8537 102.212 35.7407 102.14 35.6735L101.793 35.3375C101.724 35.2703 101.614 35.2795 101.548 35.3497L98.9767 38.1111C98.6508 38.4624 98.6628 39.0336 99.0096 39.3696Z" fill="#767676"/>
<path d="M101.097 41.499L102.167 42.7207C102.23 42.7941 102.338 42.8002 102.409 42.733L102.735 42.4336C102.807 42.3695 102.813 42.2595 102.747 42.1862L102.113 41.4623L103.187 40.4788L103.587 40.9369C103.65 41.0102 103.758 41.0163 103.83 40.9491L104.143 40.659C104.215 40.5948 104.221 40.4849 104.155 40.4116L103.755 39.9534L104.511 39.26L105.145 39.9809C105.208 40.0542 105.315 40.0603 105.387 39.9931L105.713 39.6938C105.785 39.6296 105.791 39.5197 105.725 39.4463L104.655 38.2245C104.592 38.1512 104.484 38.1451 104.413 38.2123L101.106 41.2393C101.037 41.3187 101.034 41.4256 101.097 41.499Z" fill="#767676"/>
<path d="M103.081 43.8508L104.065 45.1459C104.125 45.2223 104.23 45.2375 104.304 45.1765L104.651 44.9016C104.726 44.8405 104.741 44.7336 104.681 44.6572L104.095 43.8845L107.124 41.4867C107.198 41.4257 107.213 41.3188 107.154 41.2424L106.861 40.8575C106.801 40.7812 106.696 40.7659 106.621 40.827L103.111 43.6034C103.037 43.6645 103.025 43.7714 103.081 43.8508Z" fill="#767676"/>
<path d="M106.383 48.7202L106.76 49.3831C106.999 49.8046 107.537 49.9543 107.955 49.7069L110.572 48.1521C110.99 47.9016 111.134 47.3487 110.895 46.9272L110.518 46.2643C110.273 45.8367 109.734 45.6962 109.316 45.9436L106.7 47.4984C106.278 47.7489 106.138 48.2926 106.383 48.7202ZM107.187 48.1765L109.666 46.7012C109.749 46.6523 109.848 46.6889 109.896 46.7745L110.15 47.2204C110.198 47.306 110.18 47.4129 110.096 47.4617L107.615 48.9371C107.531 48.986 107.42 48.9554 107.372 48.873L107.118 48.427C107.076 48.3415 107.106 48.2254 107.187 48.1765Z" fill="#767676"/>
<path d="M107.812 51.3869L108.024 51.8237C108.066 51.9123 108.168 51.9459 108.251 51.9031L112.228 49.8963C112.315 49.8535 112.354 49.7466 112.312 49.658L112.099 49.2212C112.058 49.1326 111.95 49.1021 111.863 49.1448L107.887 51.1517C107.803 51.1975 107.767 51.3014 107.812 51.3869Z" fill="#767676"/>
<path d="M113.079 51.3502C113.044 51.2586 112.945 51.2188 112.855 51.2555L108.762 53.015C108.676 53.0516 108.634 53.1524 108.673 53.2441L109.294 54.7561C109.33 54.8447 109.429 54.8875 109.519 54.8478L109.922 54.6737C110.012 54.637 110.051 54.5362 110.015 54.4446L109.644 53.5434L113.178 52.0253C113.265 51.9886 113.307 51.8878 113.271 51.7962L113.079 51.3502Z" fill="#767676"/>
</g>
<defs>
<clipPath id="clip0_10_1869">
<rect width="140" height="140" fill="white"/>
</clipPath>
</defs>
</svg>
